<svg width="32" height="32" viewBox="0 0 32 32" fill="none" xmlns="http://www.w3.org/2000/svg">
<path fill-rule="evenodd" clip-rule="evenodd" d="M25.9999 8H26V8.00008L25.9999 8ZM25.2958 8H5.704L15.1449 17.5225C15.3405 17.7198 15.6595 17.7198 15.8551 17.5225L25.2958 8ZM5 8.71026L5 22.2928L11.7621 15.5308L5 8.71026ZM25.293 23H5.70705L12.4661 16.2409L14.4348 18.2266C15.0216 18.8185 15.9784 18.8185 16.5652 18.2266L18.5339 16.2409L25.293 23ZM26 22.2928V8.71005L19.2379 15.5307L26 22.2928ZM4 8C4 7.44772 4.44772 7 5 7H26C26.5523 7 27 7.44772 27 8V23C27 23.5523 26.5523 24 26 24H5C4.44772 24 4 23.5523 4 23V8Z" fill="#444444"/>
</svg>
