<?xml version="1.0" encoding="UTF-8"?>
<svg xmlns="http://www.w3.org/2000/svg" style="display: none;">

<symbol id="onlyoffice-search-icon" viewBox="0 0 17 18">
    <path fill-rule="evenodd" clip-rule="evenodd" d="M12 7.5C12 10.2614 9.76142 12.5 7 12.5C4.23858 12.5 2 10.2614 2 7.5C2 4.73858 4.23858 2.5 7 2.5C9.76142 2.5 12 4.73858 12 7.5ZM11.1922 13.1064C10.0236 13.9816 8.57233 14.5 7 14.5C3.13401 14.5 0 11.366 0 7.5C0 3.63401 3.13401 0.5 7 0.5C10.866 0.5 14 3.63401 14 7.5C14 9.07234 13.4816 10.5236 12.6064 11.6922L16.7031 15.7889C17.0936 16.1795 17.0936 16.8126 16.7031 17.2031C16.3126 17.5937 15.6794 17.5937 15.2889 17.2031L11.1922 13.1064Z"/>
</symbol>

<symbol id="onlyoffice-hamburger-icon" viewBox="0 0 20 14">
    <rect width="20" height="2"/>
    <rect y="6" width="20" height="2"/>
    <rect y="12" width="20" height="2"/>
</symbol>

<symbol id="onlyoffice-logo-big" viewBox="0 0 152 27">
    <path fill-rule="evenodd" clip-rule="evenodd" d="M44.6299 92.8476L2.68012 73.4868C-0.893374 71.7965 -0.893374 69.1844 2.68012 67.6478L17.2848 60.8869L44.4745 73.4868C48.048 75.177 53.7967 75.177 57.2148 73.4868L84.4044 60.8869L99.0092 67.6478C102.583 69.338 102.583 71.9502 99.0092 73.4868L57.0594 92.8476C53.7967 94.3841 48.048 94.3841 44.6299 92.8476Z" fill="#FF6F3D"/>
    <path fill-rule="evenodd" clip-rule="evenodd" d="M44.6299 69.0306L2.68012 49.6698C-0.893374 47.9796 -0.893374 45.3674 2.68012 43.8308L16.9741 37.2236L44.6299 49.9771C48.2034 51.6674 53.952 51.6674 57.3701 49.9771L85.0259 37.2236L99.3199 43.8308C102.893 45.5211 102.893 48.1332 99.3199 49.6698L57.3701 69.0306C53.7966 70.7209 48.048 70.7209 44.6299 69.0306Z" fill="#95C038"/>
    <path fill-rule="evenodd" clip-rule="evenodd" d="M44.6299 45.8283L2.68012 26.4675C-0.893374 24.7772 -0.893374 22.1651 2.68012 20.6285L44.6299 1.26767C48.2034 -0.422557 53.952 -0.422557 57.3701 1.26767L99.3199 20.6285C102.893 22.3187 102.893 24.9309 99.3199 26.4675L57.3701 45.8283C53.7966 47.3648 48.048 47.3648 44.6299 45.8283Z" fill="#5DC0E8"/>
    <path d="M128 46.9248C128 38.9498 130.319 32.931 135.112 29.0188C139.75 24.9561 145.316 23 151.655 23C157.993 23 163.405 24.9561 168.043 29.0188C172.681 33.0815 175 38.9498 175 47.0752C175 55.0502 172.681 61.069 168.043 64.9812C163.405 69.0439 157.839 71 151.655 71C145.316 71 139.905 69.0439 135.112 64.9812C130.319 60.9185 128 54.8997 128 46.9248ZM138.204 46.9248C138.204 52.4922 139.286 56.4044 141.296 58.9624C143.461 61.5204 145.78 63.1755 148.253 63.7774C148.872 63.9279 149.336 64.0784 149.954 64.0784C150.418 64.0784 151.036 64.2288 151.5 64.2288C152.118 64.2288 152.582 64.2288 153.201 64.0784C153.819 64.0784 154.283 63.9279 154.901 63.7774C157.375 63.1755 159.694 61.5204 161.704 58.9624C163.714 56.4044 164.796 52.3417 164.796 47.0752C164.796 41.6583 163.714 37.7461 161.704 35.1881C159.694 32.6301 157.375 30.9749 154.901 30.373C154.283 30.2226 153.664 30.0721 153.201 30.0721C152.582 30.0721 152.118 29.9216 151.5 29.9216C150.882 29.9216 150.418 29.9216 149.954 30.0721C149.49 30.0721 148.872 30.2226 148.253 30.373C145.78 30.9749 143.461 32.6301 141.296 35.1881C139.286 37.4451 138.204 41.5078 138.204 46.9248Z" fill="#333333"/>
    <path d="M182 23H194.803L211.665 53.1538L214.164 59.7692H214.32L214.164 51.1538V23H224V71H211.197L194.335 39.6154L191.836 34.2308H191.68L191.836 42.6923V71H182V23Z" fill="#333333"/>
    <path d="M233 23H242.77V62.8462H262V71H233V23Z" fill="#333333"/>
    <path d="M258 23H269.289L279.186 39.7692L280.732 43.1538H281.041L282.588 39.7692L292.639 23H303L285.526 51.4615V71H275.784V51.3077L258 23Z" fill="#333333"/>
    <path d="M302 46.9248C302 38.9498 304.319 32.931 309.112 29.0188C313.75 24.9561 319.316 23 325.655 23C331.993 23 337.405 24.9561 342.043 29.0188C346.681 33.0815 349 38.9498 349 47.0752C349 55.0502 346.681 61.069 342.043 64.9812C337.405 69.0439 331.839 71 325.655 71C319.316 71 313.905 69.0439 309.112 64.9812C304.474 60.9185 302 54.8997 302 46.9248ZM312.204 46.9248C312.204 52.4922 313.286 56.4044 315.296 58.9624C317.461 61.5204 319.625 63.1755 322.253 63.7774C322.872 63.9279 323.336 64.0784 323.954 64.0784C324.418 64.0784 325.036 64.2288 325.5 64.2288C326.118 64.2288 326.582 64.2288 327.201 64.0784C327.819 64.0784 328.283 63.9279 328.901 63.7774C331.375 63.1755 333.694 61.5204 335.704 58.9624C337.714 56.4044 338.796 52.3417 338.796 47.0752C338.796 41.6583 337.714 37.7461 335.704 35.1881C333.694 32.6301 331.375 30.9749 328.901 30.373C328.283 30.2226 327.664 30.0721 327.201 30.0721C326.582 30.0721 326.118 29.9216 325.5 29.9216C324.882 29.9216 324.418 29.9216 323.954 30.0721C323.49 30.0721 322.872 30.2226 322.253 30.373C319.78 30.9749 317.461 32.6301 315.296 35.1881C313.286 37.4451 312.204 41.5078 312.204 46.9248Z" fill="#333333"/>
    <path d="M356 23H383V30.8333H365.776V42.2821H382.224V50.266H365.776V70H356V23Z" fill="#333333"/>
    <path d="M390 23H417V30.8333H399.776V42.2821H416.224V50.266H399.776V70H390V23Z" fill="#333333"/>
    <path d="M424 70V23H434V70H424Z" fill="#333333"/>
    <path d="M479 24.2114V32.388C477.28 31.7823 475.56 31.3281 473.683 31.0252C471.807 30.7224 469.617 30.571 467.428 30.571C462.267 30.571 458.358 32.0852 455.543 35.265C452.728 38.2934 451.321 42.2303 451.321 46.9243C451.321 51.4669 452.572 55.2524 455.23 58.2808C457.889 61.3091 461.642 62.9748 466.49 62.9748C468.21 62.9748 469.93 62.8233 471.963 62.6719C473.996 62.3691 476.029 61.9148 478.218 61.0063L478.844 69.0315C478.531 69.183 478.062 69.3344 477.593 69.4858C476.967 69.6372 476.342 69.7886 475.56 69.9401C474.309 70.2429 472.745 70.3943 470.868 70.6972C468.992 70.8486 467.115 71 465.082 71C464.77 71 464.457 71 464.3 71C463.988 71 463.675 71 463.519 71C457.889 70.6972 452.728 68.5773 448.037 64.9432C443.346 61.1577 441 55.2524 441 47.3785C441 39.6562 443.346 33.5994 447.881 29.3596C452.416 25.1199 458.671 23 466.333 23C468.366 23 470.243 23 471.807 23.1514C473.527 23.3028 475.091 23.6057 476.811 23.9085C477.123 24.0599 477.593 24.0599 477.905 24.2114C478.218 24.0599 478.531 24.2114 479 24.2114Z" fill="#333333"/>
    <path d="M486 23H514V30.3814H495.583V42.1314H512.203V49.3622H495.583V62.6186H514V70H486V23Z" fill="#333333"/>
</symbol>

<symbol id="onlyoffice-logo-small" viewBox="0 0 40 36">
    <path fill-rule="evenodd" clip-rule="evenodd" d="M17.5554 35.5589L1.05424 28.1473C-0.351413 27.5003 -0.351413 26.5003 1.05424 25.9121L6.79908 23.324L17.4943 28.1473C18.8999 28.7944 21.1612 28.7944 22.5057 28.1473L33.2009 23.324L38.9458 25.9121C40.3514 26.5592 40.3514 27.5591 38.9458 28.1473L22.4446 35.5589C21.1612 36.1471 18.8999 36.1471 17.5554 35.5589Z" fill="#FF6F3D"/>
    <path fill-rule="evenodd" clip-rule="evenodd" d="M17.5019 26.3875L1.05103 18.9673C-0.350343 18.3196 -0.350343 17.3184 1.05103 16.7295L6.65651 14.1973L17.5019 19.0851C18.9033 19.7329 21.1577 19.7329 22.4981 19.0851L33.3435 14.1973L38.949 16.7295C40.3503 17.3773 40.3503 18.3784 38.949 18.9673L22.4981 26.3875C21.0967 27.0353 18.8423 27.0353 17.5019 26.3875Z" fill="#95C038"/>
    <path fill-rule="evenodd" clip-rule="evenodd" d="M17.5019 17.3112L1.05103 9.99781C-0.350343 9.35935 -0.350343 8.37262 1.05103 7.7922L17.5019 0.47885C18.9033 -0.159617 21.1577 -0.159617 22.4981 0.47885L38.949 7.7922C40.3503 8.43067 40.3503 9.41739 38.949 9.99781L22.4981 17.3112C21.0967 17.8916 18.8423 17.8916 17.5019 17.3112Z" fill="#5DC0E8"/>
</symbol>


<symbol id="onlyoffice-pin-icon" viewBox="0 0 10 14">
    <path fill-rule="evenodd" clip-rule="evenodd" d="M10 0H0V2H2V7H0V9H4V13L5 14L6 13L6 9H10V7H8V2H10V0Z"/>
</symbol>

<symbol id="onlyoffice-lock-icon" viewBox="0 0 12 14">
    <path fill-rule="evenodd" clip-rule="evenodd" d="M3.96694 3.86207C3.96694 3.46903 4.16507 2.97241 4.55507 2.56623C4.93629 2.1692 5.4303 1.93103 5.95041 1.93103C6.47052 1.93103 6.96454 2.1692 7.34576 2.56623C7.73575 2.97241 7.93388 3.46903 7.93388 3.86207V5.31034H3.96694V3.86207ZM1.98347 5.31933V3.86207C1.98347 2.90338 2.42997 1.95173 3.10609 1.24756C3.79098 0.534253 4.78457 0 5.95041 0C7.11625 0 8.10984 0.534253 8.79474 1.24756C9.47086 1.95173 9.91736 2.90338 9.91736 3.86207V5.31258C11.0629 5.3644 12 6.3082 12 7.43448V11.9724C11.9008 13.0345 10.9091 14 9.71901 14H2.18182C0.991736 14 0 13.0345 0 11.8759V7.43448C0 6.34088 0.883547 5.41932 1.98347 5.31933Z"/>
</symbol>

<symbol id="onlyoffice-comment-icon" viewBox="0 0 14 13">
    <path fill-rule="evenodd" clip-rule="evenodd" d="M0 2C0 0.89543 0.895431 0 2 0H10C11.1046 0 12 0.895431 12 2V3H5C3.89543 3 3 3.89543 3 5V9L0 11V2ZM12.3333 4C13.2538 4 14 4.73263 14 5.63636V13L11.5 11.3636H5.66667C4.74619 11.3636 4 10.631 4 9.72727V5.63636C4 4.73263 4.74619 4 5.66667 4H12.3333Z"/>
</symbol>

<symbol id="onlyoffice-wheel-icon" viewBox="0 0 18 18">
    <path d="M18 10.2857V7.71429H15.3C15.1382 6.90984 14.8193 6.14523 14.3614 5.46429L16.2771 3.54857L14.4514 1.72286L12.5357 3.63857C11.8548 3.18072 11.0902 2.86177 10.2857 2.7V0H7.71429V2.7C6.90984 2.86177 6.14523 3.18072 5.46429 3.63857L3.54857 1.72286L1.72286 3.54857L3.63857 5.46429C3.18072 6.14523 2.86177 6.90984 2.7 7.71429H0V10.2857H2.7C2.86177 11.0902 3.18072 11.8548 3.63857 12.5357L1.72286 14.4514L3.54857 16.2771L5.46429 14.3614C6.14523 14.8193 6.90984 15.1382 7.71429 15.3V18H10.2857V15.3C11.0902 15.1382 11.8548 14.8193 12.5357 14.3614L14.4514 16.2771L16.2771 14.4514L14.3614 12.5357C14.8193 11.8548 15.1382 11.0902 15.3 10.2857H18ZM9 12.8571C8.23713 12.8571 7.49139 12.6309 6.85709 12.2071C6.22278 11.7833 5.7284 11.1809 5.43646 10.4761C5.14453 9.77126 5.06814 8.99572 5.21697 8.24751C5.3658 7.4993 5.73316 6.81202 6.27259 6.27259C6.81202 5.73316 7.4993 5.3658 8.24751 5.21697C8.99572 5.06814 9.77126 5.14453 10.4761 5.43646C11.1809 5.7284 11.7833 6.22278 12.2071 6.85709C12.6309 7.49139 12.8571 8.23713 12.8571 9C12.8571 10.023 12.4508 11.0041 11.7274 11.7274C11.0041 12.4508 10.023 12.8571 9 12.8571Z"/>
</symbol>

<symbol id="onlyoffice-arrow-right-icon" viewBox="0 0 7 10">
    <path d="M1 1L5 5L1 9" stroke="#444444" stroke-width="1.5" stroke-linecap="round"/>
</symbol>

<symbol id="onlyoffice-arrow-down-icon" viewBox="0 0 10 7">
    <path d="M9 1L5 5L1 1" stroke="#444444" stroke-width="1.5" stroke-linecap="round"/>
</symbol>

<symbol id="onlyoffice-add-icon" viewBox="0 0 12 12">
    <path d="M2 6H10" stroke="white" stroke-width="1.5" stroke-miterlimit="10" stroke-linecap="round" stroke-linejoin="round"/>
    <path d="M6 10V2" stroke="white" stroke-width="1.5" stroke-miterlimit="10" stroke-linecap="round" stroke-linejoin="round"/>
</symbol>

<symbol id="onlyoffice-close-tags-icon" viewBox="0 0 12 12">
    <path d="M3.17163 3.17157L8.82849 8.82842" stroke="#AAAAAA" stroke-width="1.5" stroke-miterlimit="10" stroke-linecap="round" stroke-linejoin="round"/>
    <path d="M3.17151 8.82842L8.82837 3.17157" stroke="#AAAAAA" stroke-width="1.5" stroke-miterlimit="10" stroke-linecap="round" stroke-linejoin="round"/>
</symbol>

<symbol id="onlyoffice-message-icon" viewBox="0 0 32 32">
    <path fill-rule="evenodd" clip-rule="evenodd" d="M25.9999 8H26V8.00008L25.9999 8ZM25.2958 8H5.704L15.1449 17.5225C15.3405 17.7198 15.6595 17.7198 15.8551 17.5225L25.2958 8ZM5 8.71026L5 22.2928L11.7621 15.5308L5 8.71026ZM25.293 23H5.70705L12.4661 16.2409L14.4348 18.2266C15.0216 18.8185 15.9784 18.8185 16.5652 18.2266L18.5339 16.2409L25.293 23ZM26 22.2928V8.71005L19.2379 15.5307L26 22.2928ZM4 8C4 7.44772 4.44772 7 5 7H26C26.5523 7 27 7.44772 27 8V23C27 23.5523 26.5523 24 26 24H5C4.44772 24 4 23.5523 4 23V8Z" fill="#444444"/>
</symbol>

<symbol id="onlyoffice-topic-icon" viewBox="0 0 32 32">
    <path d="M22 10H10V11H22V10Z" fill="#444444"/>
    <path d="M22 13H10V14H22V13Z" fill="#444444"/>
    <path d="M16 16H10V17H16V16Z" fill="#444444"/>
    <path fill-rule="evenodd" clip-rule="evenodd" d="M8.91421 21L11.5 23.5858L14.0858 21H25C25.5523 21 26 20.5523 26 20V8C26 7.44771 25.5523 7 25 7H7C6.44772 7 6 7.44772 6 8V20C6 20.5523 6.44772 21 7 21H8.91421ZM11.5 25L8.5 22H7C5.89543 22 5 21.1046 5 20V8C5 6.89543 5.89543 6 7 6H25C26.1046 6 27 6.89543 27 8V20C27 21.1046 26.1046 22 25 22H14.5L11.5 25Z" fill="#444444"/>
</symbol>

<symbol id="onlyoffice-comment-topic-icon" viewBox="0 0 20 20">
    <path fill-rule="evenodd" clip-rule="evenodd" d="M5.41421 14L7.5 16.0858L9.58579 14H17V4H3V14H5.41421ZM7.5 17.5L5 15H3C2.44772 15 2 14.5523 2 14V4C2 3.44772 2.44772 3 3 3H17C17.5523 3 18 3.44772 18 4V14C18 14.5523 17.5523 15 17 15H10L7.5 17.5Z" fill="#444444"/>
</symbol>

<symbol id="onlyoffice-bold-topic-icon" viewBox="0 0 20 20">
    <path d="M6 3H9.77768C11.4991 3 12.7472 3.26364 13.5221 3.79092C14.3026 4.31227 14.6928 5.14466 14.6928 6.28809C14.6928 7.06419 14.5212 7.70107 14.178 8.19873C13.8404 8.69639 13.3893 8.99557 12.8247 9.09629V9.18516C13.5941 9.36881 14.1476 9.71243 14.4852 10.216C14.8284 10.7196 15 11.3891 15 12.2244C15 13.4093 14.5987 14.3335 13.7961 14.9971C12.9991 15.6606 11.9142 16 10.5415 16H6V3ZM8.4291 8.14541H10.0683C10.7657 8.14541 11.2694 8.02988 11.5793 7.79883C11.8948 7.56777 12.0526 7.18564 12.0526 6.65244C12.0526 6.15479 11.881 5.79932 11.5378 5.58604C11.2002 5.36683 10.6633 5.25723 9.92712 5.25723H8.4291V8.14541ZM8.4291 10.3315V13.7174H10.2509C10.9594 13.7174 11.4825 13.5722 11.8201 13.2819C12.1577 12.9916 12.3266 12.5473 12.3266 11.9489C12.3266 10.8707 11.607 10.3315 10.1679 10.3315H8.4291Z" fill="#444444"/>
</symbol>

<symbol id="onlyoffice-italic-topic-icon" viewBox="0 0 20 20">
    <path fill-rule="evenodd" clip-rule="evenodd" d="M8 3H14V4H11.3904L8.6404 15H11V16H5V15H7.60963L10.3596 4H8V3Z" fill="#444444"/>
</symbol>

<symbol id="onlyoffice-link-topic-icon" viewBox="0 0 20 20">
    <g clip-path="url(#clip0)">
    <path fill-rule="evenodd" clip-rule="evenodd" d="M3.81329 12.9406L5.93461 10.8193C6.45807 10.2958 7.1995 10.1232 7.86673 10.3014L8.64233 9.52576C7.5272 8.99305 6.15114 9.18852 5.2275 10.1122L3.10618 12.2335C1.93461 13.405 1.93461 15.3045 3.10618 16.4761L3.81329 17.1832C4.98486 18.3548 6.88436 18.3548 8.05593 17.1832L10.1773 15.0619C11.1009 14.1383 11.2964 12.7622 10.7637 11.6471L9.98805 12.4227C10.1662 13.0899 9.9936 13.8313 9.47014 14.3548L7.34882 16.4761C6.56778 17.2572 5.30145 17.2572 4.5204 16.4761L3.81329 15.769C3.03224 14.988 3.03224 13.7216 3.81329 12.9406Z" fill="#444444"/>
    <path fill-rule="evenodd" clip-rule="evenodd" d="M10.8843 5.86953L13.0055 3.74827C13.7866 2.96722 15.0529 2.96722 15.8339 3.74827L16.5411 4.4554C17.3221 5.23645 17.3221 6.50278 16.5411 7.28382L14.4198 9.4051C13.8963 9.92856 13.1549 10.1012 12.4876 9.923L11.712 10.6986C12.8272 11.2313 14.2033 11.0358 15.1269 10.1122L17.2482 7.99093C18.4197 6.81936 18.4197 4.91986 17.2482 3.74829L16.541 3.04116C15.3695 1.86959 13.47 1.86959 12.2984 3.04116L10.1772 5.16242C9.25352 6.08605 9.05805 7.46212 9.59075 8.57725L10.3663 7.80165C10.1882 7.13441 10.3608 6.39298 10.8843 5.86953Z" fill="#444444"/>
    <path d="M6.28247 13.9956L14.0606 6.21756" stroke="#444444"/>
    </g>
    <defs>
    <clipPath id="clip0">
    <rect width="20" height="20" fill="white"/>
    </clipPath>
    </defs>
</symbol>

<symbol id="oo-blockquote-topic-icon" viewBox="0 0 20 20">
    <path fill-rule="evenodd" clip-rule="evenodd" d="M10.5 3H10V3.5V9.5V10H10.5H13V11.8333L11.6 13.7L11.3398 14.0469L11.6464 14.3536L13.1464 15.8536L13.5 16.2071L13.8536 15.8536L16.8536 12.8536L17 12.7071V12.5V10V8V3.5V3H16.5H10.5ZM16 8V4H11V9H14V9.5V10V12V12.1667L13.9 12.3L12.6602 13.9531L13.5 14.7929L16 12.2929V10V8Z" fill="#444444"/>
    <path fill-rule="evenodd" clip-rule="evenodd" d="M2.5 3H2V3.5V9.5V10H2.5H5V11.8333L3.6 13.7L3.33981 14.0469L3.64645 14.3536L5.14645 15.8536L5.5 16.2071L5.85355 15.8536L8.85355 12.8536L9 12.7071V12.5V10V8V3.5V3H8.5H2.5ZM8 8V4H3V9H6V9.5V10V12V12.1667L5.9 12.3L4.66019 13.9531L5.5 14.7929L8 12.2929V10V8Z" fill="#444444"/>
</symbol>

<symbol id="oo-code-topic-icon" viewBox="0 0 20 20">
    <path d="M11.5 4L8.5 15" stroke="#444444" stroke-linecap="round" stroke-linejoin="round"/>
    <path d="M6.5 6L3 9.5L6.5 13" stroke="#444444" stroke-linecap="round" stroke-linejoin="round"/>
    <path d="M13.5 13L17 9.5L13.5 6" stroke="#444444" stroke-linecap="round" stroke-linejoin="round"/>
</symbol>

<symbol id="oo-img-topic-icon" viewBox="0 0 20 20">
    <path fill-rule="evenodd" clip-rule="evenodd" d="M8 6.5C8 7.32843 7.32843 8 6.5 8C5.67157 8 5 7.32843 5 6.5C5 5.67157 5.67157 5 6.5 5C7.32843 5 8 5.67157 8 6.5ZM7 6.5C7 6.77614 6.77614 7 6.5 7C6.22386 7 6 6.77614 6 6.5C6 6.22386 6.22386 6 6.5 6C6.77614 6 7 6.22386 7 6.5Z" fill="#444444"/>
    <path fill-rule="evenodd" clip-rule="evenodd" d="M4 3C3.44772 3 3 3.44772 3 4V16C3 16.5523 3.44772 17 4 17H16C16.5523 17 17 16.5523 17 16V4C17 3.44772 16.5523 3 16 3H4ZM16 4H4V13.2929L6.50001 10.7928L8.50001 12.7928L12.5 8.79285L16 12.2928V4ZM4 16V14.7071L6.50001 12.2071L8.50001 14.2071L12.5 10.2071L16 13.7071V16H4Z" fill="#444444"/>
</symbol>

<symbol id="oo-list-bullets-topic-icon" viewBox="0 0 20 20">
    <circle cx="5.5" cy="5.5" r="1.5" fill="#444444"/>
    <circle cx="5.5" cy="10.5" r="1.5" fill="#444444"/>
    <circle cx="5.5" cy="15.5" r="1.5" fill="#444444"/>
    <path d="M16 5H8V6H16V5Z" fill="#444444"/>
    <path d="M16 10H8V11H16V10Z" fill="#444444"/>
    <path d="M16 15H8V16H16V15Z" fill="#444444"/>
</symbol>

<symbol id="oo-list-numbering-topic-icon" viewBox="0 0 20 20">
    <path d="M16 5H8V6H16V5Z" fill="#444444"/>
    <path d="M16 10H8V11H16V10Z" fill="#444444"/>
    <path d="M16 15H8V16H16V15Z" fill="#444444"/>
    <path d="M7 12V11H5L7 9L6 8H5H4V9H6L4 11V12H7Z" fill="#444444"/>
    <path d="M5 7H6V3H5H4V4H5V7Z" fill="#444444"/>
    <path d="M6 16H4V17H6L7 16L6.5 15L7 14L6 13H4V14H5H6L5.5 15L6 16Z" fill="#444444"/>
</symbol>

<symbol id="oo-smile-topic-icon" viewBox="0 0 20 20">
    <circle cx="10" cy="10" r="6.5" stroke="#444444"/>
    <path d="M6.5 11.938C7.18236 13.1677 8.49399 14 10 14C11.506 14 12.8176 13.1677 13.5 11.938" stroke="#444444"/>
    <circle cx="8" cy="9" r="1" fill="#444444"/>
    <circle cx="12" cy="9" r="1" fill="#444444"/>
</symbol>

<symbol id="oo-date-topic-icon" viewBox="0 0 20 20">
    <path d="M5 7H6V8H5V7Z" fill="#444444"/>
    <path d="M7 7H8V8H7V7Z" fill="#444444"/>
    <path d="M9 7H10V8H9V7Z" fill="#444444"/>
    <path d="M11 7H12V8H11V7Z" fill="#444444"/>
    <path d="M13 7H14V8H13V7Z" fill="#444444"/>
    <path d="M15 7H16V8H15V7Z" fill="#444444"/>
    <path d="M5 9H6V10H5V9Z" fill="#444444"/>
    <path d="M7 9H8V10H7V9Z" fill="#444444"/>
    <path d="M9 9H10V10H9V9Z" fill="#444444"/>
    <path d="M11 9H12V10H11V9Z" fill="#444444"/>
    <path d="M13 9H14V10H13V9Z" fill="#444444"/>
    <path d="M15 9H16V10H15V9Z" fill="#444444"/>
    <path d="M5 11H6V12H5V11Z" fill="#444444"/>
    <path d="M7 11H8V12H7V11Z" fill="#444444"/>
    <path d="M9 11H10V12H9V11Z" fill="#444444"/>
    <path d="M11 11H12V12H11V11Z" fill="#444444"/>
    <path d="M5 13H6V14H5V13Z" fill="#444444"/>
    <path d="M7 13H8V14H7V13Z" fill="#444444"/>
    <path d="M13 11H14V12H13V11Z" fill="#444444"/>
    <path d="M15 11H16V12H15V11Z" fill="#444444"/>
    <path fill-rule="evenodd" clip-rule="evenodd" d="M16 3H15V4H13V3H12V4H9V3H8V4H6V3H5V4H4C3.44772 4 3 4.44771 3 5V15C3 15.5523 3.44772 16 4 16H17C17.5523 16 18 15.5523 18 15V5C18 4.44772 17.5523 4 17 4H16V3ZM5 6V5H4V15H17V5H16V6H15V5H13V6H12V5H9V6H8V5H6V6H5Z" fill="#444444"/>
</symbol>

<symbol id="oo-settings-topic-icon" viewBox="0 0 20 20">
    <path d="M14.8541 10.6178L14.8114 10.9097L15.0463 11.0883L16.4395 12.1468L15.1243 14.358L13.4436 13.7074L13.1953 13.6113L12.977 13.7637C12.5218 14.0813 12.1547 14.2869 11.8701 14.3981L11.5994 14.5039L11.5573 14.7915L11.3075 16.5H8.69251L8.44268 14.7915L8.40148 14.5098L8.13814 14.4014C7.75209 14.2426 7.38489 14.0337 7.03613 13.7731L6.81445 13.6075L6.55639 13.7074L4.87569 14.358L3.56047 12.1468L4.95368 11.0883L5.18861 10.9097L5.14592 10.6178C5.12893 10.5016 5.11754 10.3011 5.11754 10C5.11754 9.69889 5.12893 9.49841 5.14592 9.38221L5.18861 9.09025L4.95368 8.91174L3.56047 7.85315L4.87569 5.64201L6.55639 6.29258L6.80468 6.38868L7.02301 6.23633C7.47819 5.91871 7.84531 5.71307 8.12992 5.60186L8.40062 5.49607L8.44268 5.2085L8.69251 3.5H11.3075L11.5573 5.2085L11.5985 5.49024L11.8619 5.59856C12.2479 5.75736 12.6151 5.96632 12.9639 6.22686L13.1856 6.39247L13.4436 6.29258L15.1243 5.64201L16.4395 7.85315L15.0463 8.91174L14.8114 9.09025L14.8541 9.38221C14.8711 9.49841 14.8825 9.69889 14.8825 10C14.8825 10.3011 14.8711 10.5016 14.8541 10.6178ZM15.2218 14.394C15.2218 14.394 15.2214 14.3939 15.2205 14.3938L15.2218 14.394ZM8.70806 16.6059C8.70805 16.6059 8.70802 16.6058 8.70797 16.6057L8.70796 16.6056C8.70803 16.6058 8.70806 16.6059 8.70806 16.6059ZM4.7794 14.3938C4.77857 14.3939 4.77817 14.394 4.77818 14.394L4.7794 14.3938ZM3.49389 12.0314C3.49392 12.0315 3.4942 12.0321 3.49462 12.0334C3.49407 12.0321 3.49386 12.0314 3.49389 12.0314ZM3.49389 7.96856C3.49386 7.96857 3.49407 7.96792 3.49462 7.96658C3.4942 7.96788 3.49392 7.96855 3.49389 7.96856ZM11.2919 3.39409C11.2919 3.39408 11.292 3.39416 11.292 3.39431L11.292 3.39436C11.292 3.39418 11.2919 3.39409 11.2919 3.39409ZM15.2206 5.6062C15.2214 5.60606 15.2218 5.60601 15.2218 5.60602L15.2206 5.6062ZM16.5061 7.96856C16.5061 7.96855 16.5058 7.96788 16.5054 7.96657C16.5059 7.96792 16.5061 7.96857 16.5061 7.96856ZM16.5061 12.0314C16.5061 12.0314 16.5059 12.0321 16.5054 12.0334L16.5061 12.0314Z" stroke="#444444"/>
    <circle cx="10.0701" cy="10" r="2.5" stroke="#444444"/>
</symbol>

<symbol id="oo-unlisted-topic-icon" viewBox="0 0 24 24">
    <path d="M12 15.82C9.01678 15.82 6.38705 14.3049 4.83895 12C6.38705 9.69513 9.01678 8.17999 12 8.17999C14.9832 8.17999 17.613 9.69512 19.1611 12C17.613 14.3049 14.9832 15.82 12 15.82Z" stroke="#444444"/>
    <circle cx="12.0001" cy="12" r="2.4" fill="#444444"/>
    <line x1="5.50667" y1="5.73384" x2="18.2139" y2="17.5334" stroke="#444444" stroke-linecap="round" stroke-linejoin="round"/>
</symbol>

<symbol id="oo-details-topic-icon" viewBox="0 0 24 24">
    <path fill-rule="evenodd" clip-rule="evenodd" d="M15 5H12V18H15V5ZM12 4C11.4477 4 11 4.44772 11 5L11 18C11 18.5523 11.4477 19 12 19H15C15.5523 19 16 18.5523 16 18V5C16 4.44772 15.5523 4 15 4H12Z" fill="#444444"/>
    <path d="M2.5 4.5V21.5H22" stroke="#444444" stroke-linecap="round" stroke-linejoin="round"/>
    <path fill-rule="evenodd" clip-rule="evenodd" d="M21 11H18V18H21V11ZM18 10C17.4477 10 17 10.4477 17 11L17 18C17 18.5523 17.4477 19 18 19H21C21.5523 19 22 18.5523 22 18V11C22 10.4477 21.5523 10 21 10H18Z" fill="#444444"/>
    <path fill-rule="evenodd" clip-rule="evenodd" d="M9 14H6L6 18H9V14ZM6 13C5.44772 13 5 13.4477 5 14V18C5 18.5523 5.44772 19 6 19H9C9.55228 19 10 18.5523 10 18V14C10 13.4477 9.55228 13 9 13H6Z" fill="#444444"/>
</symbol>

<symbol id="oo-build-topic-icon" viewBox="0 0 24 24">
    <path d="M4 4.5L20 4.5" stroke="#444444" stroke-linecap="round" stroke-linejoin="round"/>
    <path d="M4 8.5L20 8.5" stroke="#444444" stroke-linecap="round" stroke-linejoin="round"/>
    <path d="M4 12.5L9 12.5" stroke="#444444" stroke-linecap="round" stroke-linejoin="round"/>
    <path d="M4 16.5L9 16.5" stroke="#444444" stroke-linecap="round" stroke-linejoin="round"/>
    <circle cx="16.5" cy="16.5" r="4" stroke="#444444"/>
    <line x1="13.3536" y1="13.6464" x2="19.3536" y2="19.6464" stroke="#444444"/>
</symbol>

<symbol id="oo-edit-topic-icon" viewBox="0 0 25 25">
    <path d="M4 21V17L13 8L17 12L8 21H4Z"/>
    <path d="M18 11L14 7L17 4H18L21 7V8L18 11Z"/>
</symbol>

<symbol id="oo-ring-topic-icon" viewBox="0 0 24 24">
    <path fill-rule="evenodd" clip-rule="evenodd" d="M10 18C10 18.1727 10.0219 18.3402 10.063 18.5C10.285 19.3626 11.0681 20 12 20C12.9319 20 13.715 19.3626 13.937 18.5C13.9781 18.3402 14 18.1727 14 18L14 17L12.5 17L11.5 17L10 17L10 18ZM6 14.5L7 13L7 9C7 6.23858 9.23858 4 12 4C14.7614 4 17 6.23858 17 9L17 13L18 14.5L19 16L17.1972 16L6.80278 16L5 16L6 14.5ZM15.7519 13.8321L16.1972 14.5L7.80277 14.5L8.24807 13.8321L8.5 13.4542L8.5 13L8.5 9C8.5 7.06701 10.067 5.5 12 5.5C13.933 5.5 15.5 7.067 15.5 9L15.5 13L15.5 13.4542L15.7519 13.8321Z"/>
</symbol>

<symbol id="oo-tracking-topic-icon" viewBox="0 0 24 24">
    <path fill-rule="evenodd" clip-rule="evenodd" d="M10 19C10 19.1727 10.0219 19.3402 10.063 19.5C10.285 20.3626 11.0681 21 12 21C12.9319 21 13.715 20.3626 13.937 19.5C13.9781 19.3402 14 19.1727 14 19L14 18L12.5 18L11.5 18L10 18L10 19ZM5.8 15.8L7 14L7 10C7 7.52991 8.79115 5.47816 11.1455 5.07273C11.2596 5.48366 11.4377 5.86797 11.6683 6.21428C9.72493 6.38234 8.2 8.01309 8.2 10L8.2 14L8.2 14.3633L7.99846 14.6656L7.24222 15.8L16.7578 15.8L16.0015 14.6656L15.8 14.3633L15.8 14L15.8 13L17 13L17 14L18.2 15.8L19 17L17.5578 17L6.44222 17L5 17L5.8 15.8Z"/>
    <path d="M17 4C17 5.10457 16.1046 6 15 6C13.8954 6 13 5.10457 13 4C13 2.89543 13.8954 2 15 2C16.1046 2 17 2.89543 17 4Z"/>
    <path d="M19 9.77778L19 11.8611H18.9982V12L11.0001 12L11.0001 11.8611L11 9.77778C11 8.24365 12.4323 7 14.1992 7L15.8008 7C17.5677 7 19 8.24365 19 9.77778Z"/>
</symbol>

<symbol id="oo-watching-topic-icon" viewBox="0 0 24 24">
    <path fill-rule="evenodd" clip-rule="evenodd" d="M10 20C10 20.1726 10.0219 20.3402 10.063 20.5C10.285 21.3626 11.0681 22 12 22C12.9319 22 13.715 21.3626 13.937 20.5C13.9781 20.3402 14 20.1726 14 20L14 19L12.5 19L11.5 19L10 19L10 20ZM5.8 16.8L7 15L7 11C7 8.23857 9.23858 6 12 6L12 7.2C9.90132 7.2 8.2 8.90131 8.2 11L8.2 15L8.2 15.3633L7.99846 15.6656L7.24222 16.8L16.7578 16.8L16.0015 15.6656L15.8 15.3633L15.8 15L15.8 14.8922C16.2517 14.7675 16.6606 14.5399 17 14.2361L17 15L18.2 16.8L19 18L17.5578 18L6.44222 18L5 18L5.8 16.8Z"/>
    <path d="M17 12C17 13.1046 16.1046 14 15 14C13.8954 14 13 13.1046 13 12C13 10.8954 13.8954 10 15 10C16.1046 10 17 10.8954 17 12Z"/>
    <path d="M13 2L17 2L16 9L14 9L13 2Z"/>
</symbol>

<symbol id="oo-muted-topic-icon" viewBox="0 0 24 24">
    <path fill-rule="evenodd" clip-rule="evenodd" d="M10 18C10 18.1726 10.0219 18.3402 10.063 18.5C10.285 19.3626 11.0681 20 12 20C12.9319 20 13.715 19.3626 13.937 18.5C13.9781 18.3402 14 18.1726 14 18L14 17L12.5 17L11.5 17L10 17L10 18ZM7 13L7 9.77851L8.2 10.9785L8.2 13L8.2 13.3633L7.99846 13.6656L7.24222 14.8L12.0215 14.8L13.2215 16L6.44222 16L5 16L5.8 14.8L7 13ZM8.93057 6.75933L8.0743 5.90307C8.99 4.74392 10.4081 4 12 4C14.7614 4 17 6.23857 17 9L17 13L18.2 14.8L19 16L18.1712 16L16.3309 14.1596L16.0015 13.6656L15.8 13.3633L15.8 13L15.8 9C15.8 6.90132 14.0987 5.2 12 5.2C10.7392 5.2 9.62182 5.81402 8.93057 6.75933Z"/>
    <path fill-rule="evenodd" clip-rule="evenodd" d="M17.5757 18.5756L4.42428 5.42416C4.18996 5.18985 4.18996 4.80995 4.42428 4.57563C4.65859 4.34132 5.03849 4.34132 5.2728 4.57563L18.4243 17.7271C18.6586 17.9614 18.6586 18.3413 18.4243 18.5756C18.19 18.8099 17.8101 18.8099 17.5757 18.5756Z"/>
</symbol>

<symbol id="oo-dots-topic-icon" viewBox="0 0 24 24">
    <circle cx="6" cy="12" r="1.5" stroke="#444444"/>
    <circle cx="12" cy="12" r="1.5" stroke="#444444"/>
    <circle cx="18" cy="12" r="1.5" stroke="#444444"/>
</symbol>

<symbol id="oo-reply-grey-icon" viewBox="0 0 16 16">
    <path d="M12.5 13V7.5H4.5" stroke="#808080" stroke-width="1.5" stroke-linecap="round" stroke-linejoin="round"/>
    <path d="M6.5 10L4 7.5L6.5 5" stroke="#808080" stroke-width="1.5" stroke-linecap="round" stroke-linejoin="round"/>
</symbol>

<symbol id="oo-reply-white-icon" viewBox="0 0 16 16">
    <path d="M12.5 13V7.5H4.5" stroke="white" stroke-width="1.5" stroke-linecap="round" stroke-linejoin="round"/>
    <path d="M6.5 10L4 7.5L6.5 5" stroke="white" stroke-width="1.5" stroke-linecap="round" stroke-linejoin="round"/>
</symbol>

<symbol id="oo-like-icon" viewBox="0 0 24 24">
    <path d="M18.9 12.4C19.6 11.6 20 10.6 20 9.5C20 7 18 5 15.5 5C14.1 5 12.8 6 12 7C11.2 6 9.9 5 8.5 5C6 5 4 7 4 9.5C4 10.7 4.4 11.7 5.2 12.5L5.4 12.7L12 19L18.6 12.8C18.7 12.7 18.9 12.4 18.9 12.4Z" stroke="#444444" stroke-miterlimit="10"/>
</symbol>

<symbol id="oo-flag-icon" viewBox="0 0 24 24">
    <path d="M5.5 3L5.5 21" stroke="#444444"/>
    <path d="M14.9019 6.49029L14.9505 6.5H15H18.5V15.5H15.0495L10.0981 14.5097L10.0495 14.5H10H5.5V5.5H9.95049L14.9019 6.49029Z" stroke="#444444"/>
</symbol>

<symbol id="oo-edit-tr-topic-icon" viewBox="0 0 24 24">
    <path d="M4.5 20.5V17.2071L13 8.70711L16.2929 12L7.79289 20.5H4.5ZM18 10.2929L14.7071 7L17.2071 4.5H17.7929L20.5 7.20711V7.79289L18 10.2929Z" stroke="#444444"/>
</symbol>

<symbol id="oo-note-topic-icon">
    <path fill-rule="evenodd" clip-rule="evenodd" d="M12 15.6584L16.8 18.0584V5.2H7.2V18.0584L12 15.6584ZM6 20V4H18V20L12 17L6 20Z"/>
</symbol>

<symbol id="oo-remove-topic-icon" viewBox="0 0 24 24">
    <mask id="path-1-inside-1">
    <path fill-rule="evenodd" clip-rule="evenodd" d="M15 5H10V6H15V5ZM16 6V5C16 4.44772 15.5523 4 15 4H10C9.44772 4 9 4.44772 9 5V6H8H6.5C6.22386 6 6 6.22386 6 6.5C6 6.77614 6.22386 7 6.5 7H7V20C7 20.5523 7.44771 21 8 21H17C17.5523 21 18 20.5523 18 20V7H18.5C18.7761 7 19 6.77614 19 6.5C19 6.22386 18.7761 6 18.5 6H17H16ZM15 7H10H8L8 20H17V7H15ZM11 8H10V19H11V8ZM14 8H15V19H14V8Z"/>
    </mask>
    <path fill-rule="evenodd" clip-rule="evenodd" d="M15 5H10V6H15V5ZM16 6V5C16 4.44772 15.5523 4 15 4H10C9.44772 4 9 4.44772 9 5V6H8H6.5C6.22386 6 6 6.22386 6 6.5C6 6.77614 6.22386 7 6.5 7H7V20C7 20.5523 7.44771 21 8 21H17C17.5523 21 18 20.5523 18 20V7H18.5C18.7761 7 19 6.77614 19 6.5C19 6.22386 18.7761 6 18.5 6H17H16ZM15 7H10H8L8 20H17V7H15ZM11 8H10V19H11V8ZM14 8H15V19H14V8Z" fill="#none"/>
    <path d="M10 5V4H9V5H10ZM15 5H16V4H15V5ZM10 6H9V7H10V6ZM15 6V7H16V6H15ZM16 6H15V7H16V6ZM9 6V7H10V6H9ZM7 7H8V6H7V7ZM18 7V6H17V7H18ZM8 7V6H7V7H8ZM8 20H7L7 21H8V20ZM17 20V21H18V20H17ZM17 7H18V6H17V7ZM10 8V7H9V8H10ZM11 8H12V7H11V8ZM10 19H9V20H10V19ZM11 19V20H12V19H11ZM15 8H16V7H15V8ZM14 8V7H13V8H14ZM15 19V20H16V19H15ZM14 19H13V20H14V19ZM10 6H15V4H10V6ZM11 6V5H9V6H11ZM15 5H10V7H15V5ZM14 5V6H16V5H14ZM15 5V6H17V5H15ZM15 5H17C17 3.89543 16.1046 3 15 3V5ZM10 5H15V3H10V5ZM10 5V3C8.89543 3 8 3.89543 8 5H10ZM10 6V5H8V6H10ZM8 7H9V5H8V7ZM6.5 7H8V5H6.5V7ZM7 6.5C7 6.77614 6.77614 7 6.5 7V5C5.67157 5 5 5.67157 5 6.5H7ZM6.5 6C6.77614 6 7 6.22386 7 6.5H5C5 7.32843 5.67157 8 6.5 8V6ZM7 6H6.5V8H7V6ZM8 20V7H6V20H8ZM8 20H8H6C6 21.1046 6.89543 22 8 22V20ZM17 20H8V22H17V20ZM17 20V22C18.1046 22 19 21.1046 19 20H17ZM17 7V20H19V7H17ZM18.5 6H18V8H18.5V6ZM18 6.5C18 6.22386 18.2239 6 18.5 6V8C19.3284 8 20 7.32843 20 6.5H18ZM18.5 7C18.2239 7 18 6.77614 18 6.5H20C20 5.67157 19.3284 5 18.5 5V7ZM17 7H18.5V5H17V7ZM16 7H17V5H16V7ZM10 8H15V6H10V8ZM8 8H10V6H8V8ZM9 20L9 7H7L7 20H9ZM17 19H8V21H17V19ZM16 7V20H18V7H16ZM15 8H17V6H15V8ZM10 9H11V7H10V9ZM11 19V8H9V19H11ZM11 18H10V20H11V18ZM10 8V19H12V8H10ZM15 7H14V9H15V7ZM16 19V8H14V19H16ZM14 20H15V18H14V20ZM13 8V19H15V8H13Z" fill="none" mask="url(#path-1-inside-1)"/>
</symbol>

<symbol id="oo-key-tr-icon" viewBox="0 0 24 24">
    <path d="M19.5429 7.60563L15.5429 11.5493L13.2571 10.9859L12.6857 8.73239L16.6857 4.56338C16 4.22535 15.2 4 14.2857 4C11.0857 4 8.57143 6.47887 8.57143 9.6338C8.57143 10.6479 8.8 11.5493 9.25714 12.338L4 17.5211V19.7746L6.51429 20L11.7714 14.7042C12.5714 15.0423 13.3714 15.2676 14.2857 15.2676C17.4857 15.2676 20 12.7887 20 9.6338C20 8.84507 19.8857 8.16901 19.5429 7.60563Z" stroke="#444444" stroke-miterlimit="10"/>
</symbol>

<symbol id="oo-key-white-icon" viewBox="0 0 24 24">
    <path d="M19.5429 7.60563L15.5429 11.5493L13.2571 10.9859L12.6857 8.73239L16.6857 4.56338C16 4.22535 15.2 4 14.2857 4C11.0857 4 8.57143 6.47887 8.57143 9.6338C8.57143 10.6479 8.8 11.5493 9.25714 12.338L4 17.5211V19.7746L6.51429 20L11.7714 14.7042C12.5714 15.0423 13.3714 15.2676 14.2857 15.2676C17.4857 15.2676 20 12.7887 20 9.6338C20 8.84507 19.8857 8.16901 19.5429 7.60563Z" stroke="white" stroke-miterlimit="10"/>
</symbol>

<symbol id="oo-unpin-icon" viewBox="0 0 24 24">
    <mask id="path-1-inside-1" fill="white">
    <path fill-rule="evenodd" clip-rule="evenodd" d="M5 21L19 21L19 18L16.1999 18L16.1999 12L19 12L19 9.42857L13.3999 9.42857L13.3999 4.28572L11.9999 3L10.5999 4.28572L10.5999 9.42857L5 9.42857L5 12L7.79994 12L7.79994 18L5 18L5 21Z"/>
    </mask>
    <path d="M19 21L19 22.5L20.5 22.5L20.5 21L19 21ZM5 21L3.5 21L3.5 22.5L5 22.5L5 21ZM19 18L20.5 18L20.5 16.5L19 16.5L19 18ZM16.1999 18L14.6999 18L14.6999 19.5L16.1999 19.5L16.1999 18ZM16.1999 12L16.1999 10.5L14.6999 10.5L14.6999 12L16.1999 12ZM19 12L19 13.5L20.5 13.5L20.5 12L19 12ZM19 9.42857L20.5 9.42857L20.5 7.92857L19 7.92857L19 9.42857ZM13.3999 9.42857L11.8999 9.42857L11.8999 10.9286L13.3999 10.9286L13.3999 9.42857ZM13.3999 4.28572L14.8999 4.28572L14.8999 3.62669L14.4146 3.18092L13.3999 4.28572ZM11.9999 3L13.0146 1.89521L11.9999 0.963423L10.9853 1.89521L11.9999 3ZM10.5999 4.28572L9.58534 3.18092L9.09995 3.62669L9.09995 4.28572L10.5999 4.28572ZM10.5999 9.42857L10.5999 10.9286L12.0999 10.9286L12.0999 9.42857L10.5999 9.42857ZM5 9.42857L5 7.92857L3.5 7.92857L3.5 9.42857L5 9.42857ZM5 12L3.5 12L3.5 13.5L5 13.5L5 12ZM7.79994 12L9.29994 12L9.29994 10.5L7.79994 10.5L7.79994 12ZM7.79994 18L7.79994 19.5L9.29994 19.5L9.29994 18L7.79994 18ZM5 18L5 16.5L3.5 16.5L3.5 18L5 18ZM19 19.5L5 19.5L5 22.5L19 22.5L19 19.5ZM17.5 18L17.5 21L20.5 21L20.5 18L17.5 18ZM16.1999 19.5L19 19.5L19 16.5L16.1999 16.5L16.1999 19.5ZM14.6999 12L14.6999 18L17.6999 18L17.6999 12L14.6999 12ZM19 10.5L16.1999 10.5L16.1999 13.5L19 13.5L19 10.5ZM17.5 9.42857L17.5 12L20.5 12L20.5 9.42857L17.5 9.42857ZM13.3999 10.9286L19 10.9286L19 7.92857L13.3999 7.92857L13.3999 10.9286ZM11.8999 4.28572L11.8999 9.42857L14.8999 9.42857L14.8999 4.28572L11.8999 4.28572ZM10.9853 4.1048L12.3853 5.39051L14.4146 3.18092L13.0146 1.89521L10.9853 4.1048ZM11.6146 5.39051L13.0146 4.1048L10.9853 1.89521L9.58534 3.18092L11.6146 5.39051ZM12.0999 9.42857L12.0999 4.28572L9.09995 4.28572L9.09995 9.42857L12.0999 9.42857ZM5 10.9286L10.5999 10.9286L10.5999 7.92857L5 7.92857L5 10.9286ZM6.5 12L6.5 9.42857L3.5 9.42857L3.5 12L6.5 12ZM7.79994 10.5L5 10.5L5 13.5L7.79994 13.5L7.79994 10.5ZM9.29994 18L9.29994 12L6.29994 12L6.29994 18L9.29994 18ZM5 19.5L7.79994 19.5L7.79994 16.5L5 16.5L5 19.5ZM6.5 21L6.5 18L3.5 18L3.5 21L6.5 21Z" fill="#808080" mask="url(#path-1-inside-1)"/>
</symbol>

<symbol id="oo-select-topic">
    <path fill-rule="evenodd" clip-rule="evenodd" d="M17 12C19.7614 12 22 9.76142 22 7C22 4.23858 19.7614 2 17 2C14.2386 2 12 4.23858 12 7C12 9.76142 14.2386 12 17 12ZM16.5001 9.56072L20.5304 5.53039L19.4697 4.46973L16.5001 7.4394L14.5304 5.46973L13.4697 6.53039L16.5001 9.56072Z"/>
    <path fill-rule="evenodd" clip-rule="evenodd" d="M11.083 6H5C4.44772 6 4 6.44772 4 7V17C4 17.5523 4.44772 18 5 18H7L8.43934 19.4393L9.5 20.5L10.5607 19.4393L12 18H19C19.5523 18 20 17.5523 20 17V12.1973C19.5357 12.4659 19.0322 12.674 18.5 12.811V16.5H12H11.3787L10.9393 16.9393L9.5 18.3787L8.06066 16.9393L7.62132 16.5H7H5.5V7.5H11.0205C11.0069 7.33513 11 7.16838 11 7C11 6.65929 11.0284 6.32521 11.083 6Z"/>
</symbol>

<symbol id="oo-tr-pin" viewBox="0 0 24 24">
    <path d="M11 21L11 15L13 15L13 21L12 22L11 21Z"/>
    <path d="M7.87136 10.5383L7.95331 10.3723L7.92745 10.1889L6.85722 2.6L17.1428 2.6L16.0725 10.1889L16.0467 10.3723L16.1286 10.5383L18.0347 14.4L5.96526 14.4L7.87136 10.5383Z" stroke-width="1.2"/>
</symbol>

<symbol id="oo-unlock-topic">
    <path fill-rule="evenodd" clip-rule="evenodd" d="M17 10.5H7C6.72386 10.5 6.5 10.7239 6.5 11V17C6.5 17.2761 6.72386 17.5 7 17.5H17C17.2761 17.5 17.5 17.2761 17.5 17V11C17.5 10.7239 17.2761 10.5 17 10.5ZM7 9C5.89543 9 5 9.89543 5 11V17C5 18.1046 5.89543 19 7 19H17C18.1046 19 19 18.1046 19 17V11C19 9.89543 18.1046 9 17 9H7Z"/>
    <path fill-rule="evenodd" clip-rule="evenodd" d="M12 3.25C9.37665 3.25 7.25 5.37665 7.25 8V10H8.75V8C8.75 6.20507 10.2051 4.75 12 4.75C13.446 4.75 14.6715 5.69437 15.0933 7H16.6446C16.1853 4.85683 14.2803 3.25 12 3.25Z"/>
</symbol>

<symbol id="oo-timer-topic">
    <path fill-rule="evenodd" clip-rule="evenodd" d="M12 19.5C15.5899 19.5 18.5 16.5899 18.5 13C18.5 9.41015 15.5899 6.5 12 6.5C8.41015 6.5 5.5 9.41015 5.5 13C5.5 16.5899 8.41015 19.5 12 19.5ZM12 21C16.4183 21 20 17.4183 20 13C20 8.58172 16.4183 5 12 5C7.58172 5 4 8.58172 4 13C4 17.4183 7.58172 21 12 21Z"/>
    <path fill-rule="evenodd" clip-rule="evenodd" d="M9.75 4.5C9.75 3.25736 10.7574 2.25 12 2.25C13.2426 2.25 14.25 3.25736 14.25 4.5V6H12.75V4.5C12.75 4.08579 12.4142 3.75 12 3.75C11.5858 3.75 11.25 4.08579 11.25 4.5V6H9.75V4.5Z"/>
    <path fill-rule="evenodd" clip-rule="evenodd" d="M12 7.25C12.4142 7.25 12.75 7.58579 12.75 8V11.7865L14.6646 10.8292C15.0351 10.6439 15.4856 10.7941 15.6708 11.1646C15.8561 11.5351 15.7059 11.9856 15.3354 12.1708L12.3354 13.6708C12.1029 13.7871 11.8268 13.7746 11.6057 13.638C11.3846 13.5013 11.25 13.2599 11.25 13V8C11.25 7.58579 11.5858 7.25 12 7.25Z"/>
</symbol>

<symbol id="oo-timestamp-topic">
    <path fill-rule="evenodd" clip-rule="evenodd" d="M15.5 12L19 6V3H5V6L8 12L5 18V21H19V18L15.5 12ZM17.5 18.4055L13.7634 12L17.5 5.59448V4.5H6.5V5.6459L9.67705 12L6.5 18.3541V19.5H17.5V18.4055Z"/>
    <path d="M8.5 18L11.5 12H12L15.5 18H8.5Z"/>
    <path d="M11.5 11L10 8H13.5L12 11H11.5Z"/>
</symbol>

<symbol id="oo-reset-topic">
    <path fill-rule="evenodd" clip-rule="evenodd" d="M10.4697 21.5303C10.1768 21.2374 10.1768 20.7626 10.4697 20.4697L11.9393 19L10.4697 17.5303C10.1768 17.2374 10.1768 16.7626 10.4697 16.4697C10.7626 16.1768 11.2374 16.1768 11.5303 16.4697L13.5303 18.4697C13.8232 18.7626 13.8232 19.2374 13.5303 19.5303L11.5303 21.5303C11.2374 21.8232 10.7626 21.8232 10.4697 21.5303Z"/>
    <path fill-rule="evenodd" clip-rule="evenodd" d="M12 5.75C8.54822 5.75 5.75 8.54822 5.75 12C5.75 15.4518 8.54822 18.25 12 18.25V19.75C7.71979 19.75 4.25 16.2802 4.25 12C4.25 7.71979 7.71979 4.25 12 4.25C16.2802 4.25 19.75 7.71979 19.75 12H18.25C18.25 8.54822 15.4518 5.75 12 5.75Z"/>
</symbol>

<symbol id="oo-archive-topic">
    <path fill-rule="evenodd" clip-rule="evenodd" d="M12 8H21V19H3V5H10L12 8ZM9.19722 6.5L11.1972 9.5H19.5V17.5H4.5V6.5H9.19722Z"/>
</symbol>

<symbol id="oo-unlisted-topic">
    <path fill-rule="evenodd" clip-rule="evenodd" d="M12 4.75C7.99594 4.75 4.75 7.99594 4.75 12C4.75 16.0041 7.99594 19.25 12 19.25C16.0041 19.25 19.25 16.0041 19.25 12C19.25 7.99594 16.0041 4.75 12 4.75ZM3.25 12C3.25 7.16751 7.16751 3.25 12 3.25C16.8325 3.25 20.75 7.16751 20.75 12C20.75 16.8325 16.8325 20.75 12 20.75C7.16751 20.75 3.25 16.8325 3.25 12Z"/>
    <path fill-rule="evenodd" clip-rule="evenodd" d="M8.96979 8.96966C9.26269 8.67677 9.73756 8.67677 10.0305 8.96966L15.0305 13.9697C15.3233 14.2626 15.3233 14.7374 15.0305 15.0303C14.7376 15.3232 14.2627 15.3232 13.9698 15.0303L8.96979 10.0303C8.6769 9.73743 8.6769 9.26255 8.96979 8.96966Z"/>
    <path fill-rule="evenodd" clip-rule="evenodd" d="M8.96966 15.0303C8.67677 14.7374 8.67677 14.2626 8.96966 13.9697L13.9697 8.96967C14.2626 8.67678 14.7374 8.67678 15.0303 8.96967C15.3232 9.26256 15.3232 9.73744 15.0303 10.0303L10.0303 15.0303C9.73743 15.3232 9.26255 15.3232 8.96966 15.0303Z"/>
</symbol>

<symbol id="oo-personal-message">
    <path fill-rule="evenodd" clip-rule="evenodd" d="M19 5.5H5C4.72386 5.5 4.5 5.72386 4.5 6V17C4.5 17.2761 4.72386 17.5 5 17.5H19C19.2761 17.5 19.5 17.2761 19.5 17V6C19.5 5.72386 19.2761 5.5 19 5.5ZM5 4C3.89543 4 3 4.89543 3 6V17C3 18.1046 3.89543 19 5 19H19C20.1046 19 21 18.1046 21 17V6C21 4.89543 20.1046 4 19 4H5Z"/>
    <path fill-rule="evenodd" clip-rule="evenodd" d="M9.99746 12.4666L3.45386 5.51401L4.54616 4.48596L11.0898 11.4385C11.5833 11.9629 12.4167 11.9629 12.9103 11.4385L19.4539 4.48596L20.5462 5.51401L14.0026 12.4666C12.9168 13.6202 11.0833 13.6202 9.99746 12.4666Z"/>
    <path fill-rule="evenodd" clip-rule="evenodd" d="M10.0228 10.9721L4.59227 17.9603L3.40785 17.0398L8.83841 10.0517L10.0228 10.9721Z"/>
    <path fill-rule="evenodd" clip-rule="evenodd" d="M15.1858 10.8327L20.5655 17.0073L19.4346 17.9927L14.0548 11.8181L15.1858 10.8327Z"/>
</symbol>

<symbol id="oo-slow-mode">
    <path fill-rule="evenodd" clip-rule="evenodd" d="M12 5.75C7.44365 5.75 3.75 9.44365 3.75 14C3.75 15.365 4.08091 16.6505 4.66624 17.7828L3.33376 18.4716C2.64095 17.1314 2.25 15.6103 2.25 14C2.25 8.61522 6.61522 4.25 12 4.25C17.3848 4.25 21.75 8.61522 21.75 14C21.75 15.6103 21.3591 17.1314 20.6662 18.4716L19.3338 17.7828C19.9191 16.6505 20.25 15.365 20.25 14C20.25 9.44365 16.5563 5.75 12 5.75Z"/>
    <path fill-rule="evenodd" clip-rule="evenodd" d="M7 15H3V13.5H7V15Z"/>
    <path fill-rule="evenodd" clip-rule="evenodd" d="M21 15H17V13.5H21V15Z"/>
    <path fill-rule="evenodd" clip-rule="evenodd" d="M6.36914 11.4056L7.40559 10.3691L15.1884 15.3723L11.3723 19.1884L6.36914 11.4056ZM9.49652 13.4965L11.6277 16.8117L12.8117 15.6277L9.49652 13.4965Z"/>
    <path fill-rule="evenodd" clip-rule="evenodd" d="M11.25 9V5H12.75V9H11.25Z"/>
</symbol>

<symbol id="oo-history-topic">
    <path fill-rule="evenodd" clip-rule="evenodd" d="M2.46967 9.46967C2.76256 9.17678 3.23744 9.17678 3.53033 9.46967L5 10.9393L6.46967 9.46967C6.76256 9.17678 7.23744 9.17678 7.53033 9.46967C7.82322 9.76256 7.82322 10.2374 7.53033 10.5303L5.53033 12.5303C5.23744 12.8232 4.76256 12.8232 4.46967 12.5303L2.46967 10.5303C2.17678 10.2374 2.17678 9.76256 2.46967 9.46967Z"/>
    <path fill-rule="evenodd" clip-rule="evenodd" d="M12 8.25C12.4142 8.25 12.75 8.58579 12.75 9V12.25H15C15.4142 12.25 15.75 12.5858 15.75 13C15.75 13.4142 15.4142 13.75 15 13.75H12C11.5858 13.75 11.25 13.4142 11.25 13V9C11.25 8.58579 11.5858 8.25 12 8.25Z"/>
    <path fill-rule="evenodd" clip-rule="evenodd" d="M19.25 11.5C19.25 7.77208 16.2279 4.75 12.5 4.75C8.77208 4.75 5.75 7.77208 5.75 11.5L4.25 11.5C4.25 6.94365 7.94365 3.25 12.5 3.25C17.0563 3.25 20.75 6.94365 20.75 11.5C20.75 16.0563 17.0563 19.75 12.5 19.75L12.5 18.25C16.2279 18.25 19.25 15.2279 19.25 11.5Z"/>
</symbol>

<symbol id="oo-person-icon">
    <path fill-rule="evenodd" clip-rule="evenodd" d="M12 9.8C13.5464 9.8 14.8 8.5464 14.8 7C14.8 5.4536 13.5464 4.2 12 4.2C10.4536 4.2 9.2 5.4536 9.2 7C9.2 8.5464 10.4536 9.8 12 9.8ZM12 11C14.2091 11 16 9.20914 16 7C16 4.79086 14.2091 3 12 3C9.79086 3 8 4.79086 8 7C8 9.20914 9.79086 11 12 11Z"/>
    <path fill-rule="evenodd" clip-rule="evenodd" d="M19 21V18C19 14.6863 16.3137 12 13 12H11C7.68629 12 5 14.6863 5 18V21H6.2V18C6.2 15.349 8.34903 13.2 11 13.2H13C15.651 13.2 17.8 15.349 17.8 18V21H19Z"/>
    <path d="M5 20H19V21.2H5V20Z"/>
</symbol>

<symbol id="oo-activity-icon">
    <path fill-rule="evenodd" clip-rule="evenodd" d="M19 4.2H5C4.55817 4.2 4.2 4.55817 4.2 5V18C4.2 18.4418 4.55817 18.8 5 18.8H19C19.4418 18.8 19.8 18.4418 19.8 18V5C19.8 4.55817 19.4418 4.2 19 4.2ZM5 3C3.89543 3 3 3.89543 3 5V18C3 19.1046 3.89543 20 5 20H19C20.1046 20 21 19.1046 21 18V5C21 3.89543 20.1046 3 19 3H5Z"/>
    <path d="M7 7H17V8.2H7V7Z"/>
    <path d="M7 11H17V12.2H7V11Z"/>
    <path d="M7 15H17V16.2H7V15Z"/>
</symbol>

<symbol id="oo-invite-icon">
    <path fill-rule="evenodd" clip-rule="evenodd" d="M4.49999 4.10002C4.27908 4.10002 4.09999 4.27911 4.09999 4.50002V19.5C4.09999 19.7209 4.27908 19.9 4.49999 19.9H19.5C19.7209 19.9 19.9 19.7209 19.9 19.5V12C19.9 11.6687 20.1686 11.4 20.5 11.4C20.8314 11.4 21.1 11.6687 21.1 12V19.5C21.1 20.3837 20.3836 21.1 19.5 21.1H4.49999C3.61634 21.1 2.89999 20.3837 2.89999 19.5V4.50002C2.89999 3.61637 3.61634 2.90002 4.49999 2.90002H12C12.3314 2.90002 12.6 3.16865 12.6 3.50002C12.6 3.8314 12.3314 4.10002 12 4.10002H4.49999Z"/>
    <path fill-rule="evenodd" clip-rule="evenodd" d="M15.5 3.40002C15.8314 3.40002 16.1 3.66865 16.1 4.00002V13C16.1 13.3314 15.8314 13.6 15.5 13.6C15.1686 13.6 14.9 13.3314 14.9 13V4.00002C14.9 3.66865 15.1686 3.40002 15.5 3.40002Z"/>
    <path fill-rule="evenodd" clip-rule="evenodd" d="M10.4 8.50002C10.4 8.16865 10.6686 7.90002 11 7.90002H20C20.3314 7.90002 20.6 8.16865 20.6 8.50002C20.6 8.8314 20.3314 9.10002 20 9.10002H11C10.6686 9.10002 10.4 8.8314 10.4 8.50002Z"/>
</symbol>

<symbol id="oo-grant-icon">
    <path fill-rule="evenodd" clip-rule="evenodd" d="M12 4.86244L10.3575 8.41946C10.0368 9.11389 9.37846 9.59193 8.61888 9.68189L4.72699 10.1428L7.6027 12.7992C8.16516 13.3188 8.41701 14.0935 8.26762 14.8445L7.50398 18.6834L10.9263 16.7699C11.5935 16.3968 12.4065 16.3968 13.0737 16.7699L16.496 18.6834L15.7324 14.8445C15.583 14.0935 15.8348 13.3188 16.3973 12.7992L19.273 10.1428L15.3811 9.68189C14.6215 9.59193 13.9632 9.1139 13.6425 8.41947L12 4.86244ZM12.9079 3.96615C12.5503 3.19179 11.4497 3.19179 11.0921 3.96615L9.26801 7.91639C9.12225 8.23204 8.82301 8.44933 8.47774 8.49022L4.15487 9.00219C3.30715 9.10259 2.96689 10.1506 3.59394 10.7298L6.78844 13.6807C7.04411 13.9169 7.15859 14.269 7.09068 14.6104L6.24247 18.8744C6.07601 19.7113 6.96658 20.3588 7.71129 19.9424L11.512 17.8173C11.8152 17.6477 12.1848 17.6477 12.488 17.8173L16.2887 19.9424C17.0334 20.3588 17.924 19.7113 17.7575 18.8744L16.9093 14.6104C16.8414 14.269 16.9559 13.9169 17.2115 13.6807L20.406 10.7298C21.0331 10.1506 20.6928 9.10259 19.8451 9.00219L15.5222 8.49022C15.177 8.44933 14.8777 8.23204 14.732 7.91639L12.9079 3.96615Z"/>
</symbol>

<symbol id="oo-settings">
    <path fill-rule="evenodd" clip-rule="evenodd" d="M10.4324 2.02166C10.9289 1.93889 11.4883 1.89999 12 1.89999C12.5189 1.89999 13.037 1.93994 13.554 2.01949L14.2886 2.13254L14.9693 5.04524C15.3652 5.22713 15.75 5.445 16.111 5.7008L19.015 4.87085L19.4724 5.44265C20.1 6.22736 20.6658 7.14981 21.035 8.17561L21.2808 8.85848L19.1109 10.8792C19.1332 11.0975 19.1444 11.3164 19.1444 11.5356C19.1444 11.738 19.1352 11.9684 19.0991 12.2116L21.2097 14.1771L20.9639 14.8599C20.6022 15.8648 20.0759 16.7997 19.3804 17.6182L18.9136 18.1676L16.0663 17.3057C15.7079 17.5587 15.3263 17.7744 14.9338 17.9548L14.2553 20.8577L13.532 20.9783C13.0355 21.0611 12.4761 21.1 11.9644 21.1C11.4455 21.1 10.9274 21.0601 10.4105 20.9805L9.67579 20.8674L8.99507 17.9548C8.6026 17.7744 8.22092 17.5587 7.86258 17.3057L4.99269 18.1744L4.52761 17.5929C3.90001 16.8082 3.33417 15.8857 2.96498 14.8599L2.71921 14.1771L4.88903 12.1564C4.86674 11.938 4.85554 11.7192 4.85554 11.5C4.85554 11.2808 4.86674 11.062 4.88903 10.8436L2.71921 8.82292L2.96498 8.14004C3.32664 7.13516 3.85295 6.20025 4.54843 5.38183L5.01346 4.83459L7.89601 5.69583C8.25497 5.44218 8.63738 5.22595 9.03063 5.04524L9.70907 2.14225L10.4324 2.02166ZM10.6954 3.19475L10.0603 5.9124L9.77461 6.02992C9.27391 6.2359 8.79959 6.50253 8.38229 6.82925L8.13796 7.02054L5.42089 6.20873C4.8591 6.88197 4.42422 7.65054 4.11663 8.48452L6.16363 10.3908L6.11602 10.7041C6.0757 10.9694 6.05554 11.2347 6.05554 11.5C6.05554 11.7653 6.0757 12.0306 6.11602 12.2959L6.16363 12.6091L4.11667 14.5154C4.42473 15.3465 4.88996 16.1151 5.4227 16.7905L8.10217 15.9794L8.34756 16.1714C8.76466 16.4978 9.23869 16.7642 9.73906 16.9701L10.0247 17.0876L10.6597 19.8045C11.0947 19.8682 11.5296 19.9 11.9644 19.9C12.3985 19.9 12.8636 19.8683 13.269 19.8052L13.9041 17.0876L14.1898 16.9701C14.6902 16.7642 15.1642 16.4978 15.5813 16.1714L15.8267 15.9794L18.5081 16.7911C19.0699 16.1179 19.5047 15.3494 19.8122 14.5155L17.7732 12.6166L17.8647 12.2693C17.9265 12.0349 17.9444 11.7869 17.9444 11.5356C17.9444 11.2703 17.9243 11.005 17.884 10.7397L17.8363 10.4264L19.8833 8.52013C19.5751 7.68867 19.1096 6.91978 18.5766 6.24421L15.8613 7.02021L15.6204 6.8314C15.2025 6.5037 14.7272 6.23635 14.2254 6.02992L13.9397 5.9124L13.3047 3.19551C12.8697 3.13182 12.4348 3.09999 12 3.09999C11.5659 3.09999 11.1008 3.13171 10.6954 3.19475Z"/>
    <path fill-rule="evenodd" clip-rule="evenodd" d="M12 13.8C13.2703 13.8 14.3 12.7703 14.3 11.5C14.3 10.2297 13.2703 9.2 12 9.2C10.7297 9.2 9.7 10.2297 9.7 11.5C9.7 12.7703 10.7297 13.8 12 13.8ZM12 15C13.933 15 15.5 13.433 15.5 11.5C15.5 9.567 13.933 8 12 8C10.067 8 8.5 9.567 8.5 11.5C8.5 13.433 10.067 15 12 15Z"/>
</symbol>

</svg>